<svg width="50" height="38" viewBox="0 0 50 38" fill="none" xmlns="http://www.w3.org/2000/svg">
<path id="Vector" d="M43.3571 22.8V22.3H42.8571H35.7143C32.0795 22.3 29.0714 19.1454 29.0714 15.2V7.6C29.0714 3.65459 32.0795 0.5 35.7143 0.5H42.8571C46.492 0.5 49.5 3.65459 49.5 7.6V11.4V15.2V23.75C49.5 31.3767 43.7018 37.5 36.6071 37.5H35.7143C34.0437 37.5 32.6429 36.0554 32.6429 34.2C32.6429 32.3446 34.0437 30.9 35.7143 30.9H36.6071C40.3607 30.9 43.3571 27.6658 43.3571 23.75V22.8ZM14.7857 22.8V22.3H14.2857H7.14286C3.50803 22.3 0.5 19.1454 0.5 15.2V7.6C0.5 3.65459 3.50803 0.5 7.14286 0.5H14.2857C17.9205 0.5 20.9286 3.65459 20.9286 7.6V11.4V15.2V23.75C20.9286 31.3767 15.1304 37.5 8.03571 37.5H7.14286C5.47232 37.5 4.07143 36.0554 4.07143 34.2C4.07143 32.3446 5.47232 30.9 7.14286 30.9H8.03571C11.7893 30.9 14.7857 27.6658 14.7857 23.75V22.8Z" stroke="white"/>
</svg>
