<svg width="28" height="28" viewBox="0 0 28 28" fill="none" xmlns="http://www.w3.org/2000/svg">
<path d="M22.1667 4.66667H20.8833C20.6126 3.34998 19.8961 2.1669 18.8548 1.31684C17.8135 0.466772 16.5109 0.00169695 15.1667 0L12.8333 0C11.4891 0.00169695 10.1865 0.466772 9.14521 1.31684C8.10388 2.1669 7.38745 3.34998 7.11667 4.66667H5.83333C4.28681 4.66852 2.80415 5.2837 1.71059 6.37726C0.617029 7.47082 0.0018525 8.95347 0 10.5L0 22.1667C0.0018525 23.7132 0.617029 25.1959 1.71059 26.2894C2.80415 27.383 4.28681 27.9981 5.83333 28H22.1667C23.7132 27.9981 25.1959 27.383 26.2894 26.2894C27.383 25.1959 27.9981 23.7132 28 22.1667V10.5C27.9981 8.95347 27.383 7.47082 26.2894 6.37726C25.1959 5.2837 23.7132 4.66852 22.1667 4.66667ZM12.8333 2.33333H15.1667C15.888 2.33632 16.5907 2.5621 17.1788 2.97977C17.7669 3.39744 18.2116 3.98661 18.452 4.66667H9.548C9.78843 3.98661 10.2331 3.39744 10.8212 2.97977C11.4093 2.5621 12.112 2.33632 12.8333 2.33333ZM5.83333 7H22.1667C23.0949 7 23.9852 7.36875 24.6415 8.02513C25.2979 8.6815 25.6667 9.57174 25.6667 10.5V14H2.33333V10.5C2.33333 9.57174 2.70208 8.6815 3.35846 8.02513C4.01484 7.36875 4.90508 7 5.83333 7ZM22.1667 25.6667H5.83333C4.90508 25.6667 4.01484 25.2979 3.35846 24.6415C2.70208 23.9852 2.33333 23.0949 2.33333 22.1667V16.3333H12.8333V17.5C12.8333 17.8094 12.9562 18.1062 13.175 18.325C13.3938 18.5437 13.6906 18.6667 14 18.6667C14.3094 18.6667 14.6062 18.5437 14.825 18.325C15.0437 18.1062 15.1667 17.8094 15.1667 17.5V16.3333H25.6667V22.1667C25.6667 23.0949 25.2979 23.9852 24.6415 24.6415C23.9852 25.2979 23.0949 25.6667 22.1667 25.6667Z" fill="white"/>
</svg>
