<svg width="579" height="281" viewBox="0 0 579 281" fill="none" xmlns="http://www.w3.org/2000/svg">
<path d="M543.244 183.028C545.845 177.504 547.127 171.319 546.777 164.784C545.651 143.738 527.674 127.594 506.668 128.722C500.611 129.033 495.02 130.822 490.05 133.584C491.098 129.305 491.564 124.832 491.293 120.202C489.74 91.804 458.91 68.8131 434.604 70.1358C427.15 70.5248 420.238 72.7422 414.22 76.2822C414.22 74.6095 414.298 72.9367 414.181 71.2639C412.007 29.717 376.557 -2.14348 335.051 0.112814C298.786 2.0968 269.898 29.4836 264.695 64.106C250.135 44.3829 226.334 32.1289 200.086 33.5293C165.646 35.3966 137.962 60.2159 130.779 92.3486C130.08 93.0878 129.42 93.8658 128.799 94.6827C120.179 89.042 109.812 85.9688 98.7466 86.5912C71.0626 88.1084 49.8628 111.799 51.3771 139.497C51.4159 140.081 51.4936 140.664 51.5712 141.248C45.8636 137.552 38.9911 135.529 31.6527 135.918C13.2097 136.93 -0.923535 152.724 0.0471521 171.202C1.05667 189.681 16.8206 203.841 35.2637 202.868C35.652 202.829 36.0014 202.79 36.3897 202.752C39.2629 221.969 56.347 236.207 76.1102 235.157C81.2354 234.884 86.0501 233.601 90.3987 231.5C90.3987 232.006 90.3599 232.472 90.3987 232.978C91.68 256.319 111.599 274.253 134.895 272.969C153.571 271.958 168.714 258.926 173.373 241.809C181.1 265.111 203.581 281.372 229.246 279.971C251.843 278.726 270.558 264.138 278.207 244.26C286.749 252.079 298.281 256.63 310.745 255.969C327.751 255.035 342.001 244.687 348.757 230.255C358.541 249.161 378.654 261.61 401.252 260.365C424.781 259.081 444.078 243.326 451.106 222.202C456.697 237.568 471.801 248.15 488.963 247.216C496.03 246.827 502.514 244.532 507.988 240.836C515.055 252.507 528.101 260.015 542.661 259.198C563.667 258.07 579.78 240.058 578.654 219.012C577.528 199.6 562.153 184.39 543.244 183.028Z" fill="#0E0E0E"/>
<path d="M544.254 201.623C560.018 202.752 573.297 213.527 577.879 228.349C578.461 225.314 578.733 222.202 578.577 219.012C577.607 201.157 564.561 186.919 547.787 183.69C548.098 190.07 546.817 196.177 544.254 201.623Z" fill="url(#paint0_linear_87_1930)"/>
<path d="M492.34 138.875C492.573 143.504 492.146 147.978 491.098 152.257C496.029 149.456 501.659 147.706 507.716 147.394C525.538 146.422 541.146 157.937 546.155 174.276C546.737 171.241 546.97 168.09 546.815 164.822C545.689 143.777 527.712 127.632 506.706 128.761C501.232 129.072 496.145 130.589 491.564 132.923C491.952 134.868 492.224 136.852 492.34 138.875Z" fill="url(#paint1_linear_87_1930)"/>
<path d="M32.6234 154.513C39.923 154.124 46.8343 156.147 52.5419 159.843C52.5031 159.259 52.3866 158.715 52.3478 158.092C50.8335 130.356 72.0722 106.664 99.7173 105.186C110.783 104.603 121.15 107.676 129.77 113.278C130.391 112.461 131.051 111.683 131.75 110.944C138.933 78.8109 166.617 53.9916 201.057 52.1243C227.305 50.685 251.145 62.9779 265.666 82.701C270.869 48.0786 299.718 20.6529 336.021 18.7078C377.528 16.4515 412.978 48.3509 415.23 89.9367C415.307 91.6484 415.268 93.2823 415.23 94.955C421.248 91.4539 428.159 89.2365 435.614 88.8086C457.28 87.6415 484.148 105.848 490.749 129.967C491.254 126.815 491.448 123.587 491.254 120.28C489.701 91.8818 458.872 68.8909 434.566 70.2136C427.111 70.6026 420.199 72.82 414.181 76.36C414.181 74.6873 414.259 73.0145 414.142 71.3417C412.007 29.717 376.557 -2.14349 335.051 0.112811C298.786 2.0968 269.898 29.4836 264.695 64.106C250.135 44.3829 226.334 32.1289 200.086 33.5293C165.646 35.3966 137.962 60.2159 130.779 92.3486C130.08 93.0878 129.42 93.8658 128.799 94.6827C120.179 89.042 109.812 85.9688 98.7467 86.5912C71.0626 88.1084 49.8628 111.799 51.3771 139.497C51.4159 140.081 51.4936 140.664 51.5712 141.248C45.8636 137.552 38.9911 135.529 31.6527 135.918C13.2097 136.93 -0.923535 152.724 0.0471521 171.202C0.24129 174.431 0.86253 177.504 1.87204 180.422C5.13355 166.223 17.403 155.33 32.6234 154.513Z" fill="url(#paint2_linear_87_1930)"/>
<path d="M262.636 82.8955C279.487 81.9619 294.047 93.6713 297.387 109.738C297.542 108.065 297.62 106.392 297.542 104.68C296.532 86.0855 280.652 71.8086 262.092 72.82C243.533 73.8314 229.283 89.7422 230.293 108.337C230.37 110.049 230.642 111.722 230.992 113.356C232.584 97.0168 245.824 83.8292 262.636 82.8955Z" fill="url(#paint3_linear_87_1930)"/>
<path d="M414.958 96.161C430.994 101.374 440.429 117.518 437.789 133.701C438.527 132.184 439.225 130.667 439.73 129.033C445.438 111.294 435.77 92.3097 418.064 86.5523C400.359 80.8338 381.411 90.5203 375.665 108.259C375.121 109.893 374.772 111.566 374.5 113.2C381.838 98.4951 398.884 90.9482 414.958 96.161Z" fill="url(#paint4_linear_87_1930)"/>
<path d="M130.895 117.557C141.883 114.834 152.91 120.708 157.104 130.9C156.987 129.772 156.832 128.644 156.56 127.555C153.57 115.417 141.379 108.026 129.264 110.983C117.15 113.978 109.773 126.193 112.724 138.33C112.996 139.459 113.384 140.509 113.811 141.559C112.84 130.589 119.946 120.28 130.895 117.557Z" fill="url(#paint5_linear_87_1930)"/>
<defs>
<linearGradient id="paint0_linear_87_1930" x1="541.546" y1="226.116" x2="585.469" y2="188.149" gradientUnits="userSpaceOnUse">
<stop stop-color="#E9F950"/>
<stop offset="0.0001" stop-color="#55F4C4"/>
<stop offset="1" stop-color="#BAE906"/>
</linearGradient>
<linearGradient id="paint1_linear_87_1930" x1="486.704" y1="171.997" x2="529.801" y2="112.759" gradientUnits="userSpaceOnUse">
<stop stop-color="#E9F950"/>
<stop offset="0.0001" stop-color="#55F4C4"/>
<stop offset="1" stop-color="#BAE906"/>
</linearGradient>
<linearGradient id="paint2_linear_87_1930" x1="-38.7107" y1="171.401" x2="67.2209" y2="-152.636" gradientUnits="userSpaceOnUse">
<stop stop-color="#E9F950"/>
<stop offset="0.0001" stop-color="#55F4C4"/>
<stop offset="1" stop-color="#BAE906"/>
</linearGradient>
<linearGradient id="paint3_linear_87_1930" x1="224.937" y1="111.326" x2="258.554" y2="48.6836" gradientUnits="userSpaceOnUse">
<stop stop-color="#E9F950"/>
<stop offset="0.0001" stop-color="#55F4C4"/>
<stop offset="1" stop-color="#BAE906"/>
</linearGradient>
<linearGradient id="paint4_linear_87_1930" x1="369.231" y1="131.262" x2="413.54" y2="63.0494" gradientUnits="userSpaceOnUse">
<stop stop-color="#E9F950"/>
<stop offset="0.0001" stop-color="#55F4C4"/>
<stop offset="1" stop-color="#BAE906"/>
</linearGradient>
<linearGradient id="paint5_linear_87_1930" x1="108.526" y1="139.998" x2="136.276" y2="95.0514" gradientUnits="userSpaceOnUse">
<stop stop-color="#E9F950"/>
<stop offset="0.0001" stop-color="#55F4C4"/>
<stop offset="1" stop-color="#BAE906"/>
</linearGradient>
</defs>
</svg>
