<svg width="32" height="30" viewBox="0 0 32 30" fill="none" xmlns="http://www.w3.org/2000/svg">
<path d="M25.3333 0.333374H6.66667C4.89921 0.335491 3.20474 1.03855 1.95496 2.28833C0.705176 3.53812 0.00211714 5.23258 0 7.00004L0 23C0.00211714 24.7675 0.705176 26.462 1.95496 27.7118C3.20474 28.9615 4.89921 29.6646 6.66667 29.6667H25.3333C27.1008 29.6646 28.7953 28.9615 30.045 27.7118C31.2948 26.462 31.9979 24.7675 32 23V7.00004C31.9979 5.23258 31.2948 3.53812 30.045 2.28833C28.7953 1.03855 27.1008 0.335491 25.3333 0.333374ZM6.66667 3.00004H25.3333C26.3942 3.00004 27.4116 3.42147 28.1618 4.17161C28.9119 4.92176 29.3333 5.93918 29.3333 7.00004V8.33337H2.66667V7.00004C2.66667 5.93918 3.08809 4.92176 3.83824 4.17161C4.58839 3.42147 5.6058 3.00004 6.66667 3.00004ZM25.3333 27H6.66667C5.6058 27 4.58839 26.5786 3.83824 25.8285C3.08809 25.0783 2.66667 24.0609 2.66667 23V11H29.3333V23C29.3333 24.0609 28.9119 25.0783 28.1618 25.8285C27.4116 26.5786 26.3942 27 25.3333 27ZM25.3333 16.3334C25.3333 16.687 25.1929 17.0261 24.9428 17.2762C24.6928 17.5262 24.3536 17.6667 24 17.6667H8C7.64638 17.6667 7.30724 17.5262 7.05719 17.2762C6.80714 17.0261 6.66667 16.687 6.66667 16.3334C6.66667 15.9798 6.80714 15.6406 7.05719 15.3906C7.30724 15.1405 7.64638 15 8 15H24C24.3536 15 24.6928 15.1405 24.9428 15.3906C25.1929 15.6406 25.3333 15.9798 25.3333 16.3334ZM20 21.6667C20 22.0203 19.8595 22.3595 19.6095 22.6095C19.3594 22.8596 19.0203 23 18.6667 23H8C7.64638 23 7.30724 22.8596 7.05719 22.6095C6.80714 22.3595 6.66667 22.0203 6.66667 21.6667C6.66667 21.3131 6.80714 20.9739 7.05719 20.7239C7.30724 20.4739 7.64638 20.3334 8 20.3334H18.6667C19.0203 20.3334 19.3594 20.4739 19.6095 20.7239C19.8595 20.9739 20 21.3131 20 21.6667ZM4 5.66671C4 5.403 4.0782 5.14521 4.22471 4.92595C4.37122 4.70668 4.57945 4.53578 4.82309 4.43487C5.06672 4.33395 5.33481 4.30755 5.59345 4.35899C5.8521 4.41044 6.08967 4.53743 6.27614 4.7239C6.46261 4.91037 6.5896 5.14795 6.64105 5.40659C6.69249 5.66523 6.66609 5.93332 6.56517 6.17695C6.46426 6.42059 6.29336 6.62883 6.07409 6.77533C5.85483 6.92184 5.59704 7.00004 5.33333 7.00004C4.97971 7.00004 4.64057 6.85956 4.39052 6.60952C4.14048 6.35947 4 6.02033 4 5.66671ZM8 5.66671C8 5.403 8.0782 5.14521 8.22471 4.92595C8.37122 4.70668 8.57945 4.53578 8.82309 4.43487C9.06672 4.33395 9.33481 4.30755 9.59345 4.35899C9.8521 4.41044 10.0897 4.53743 10.2761 4.7239C10.4626 4.91037 10.5896 5.14795 10.641 5.40659C10.6925 5.66523 10.6661 5.93332 10.5652 6.17695C10.4643 6.42059 10.2934 6.62883 10.0741 6.77533C9.85483 6.92184 9.59704 7.00004 9.33333 7.00004C8.97971 7.00004 8.64057 6.85956 8.39052 6.60952C8.14048 6.35947 8 6.02033 8 5.66671ZM12 5.66671C12 5.403 12.0782 5.14521 12.2247 4.92595C12.3712 4.70668 12.5795 4.53578 12.8231 4.43487C13.0667 4.33395 13.3348 4.30755 13.5935 4.35899C13.8521 4.41044 14.0897 4.53743 14.2761 4.7239C14.4626 4.91037 14.5896 5.14795 14.641 5.40659C14.6925 5.66523 14.6661 5.93332 14.5652 6.17695C14.4643 6.42059 14.2934 6.62883 14.0741 6.77533C13.8548 6.92184 13.597 7.00004 13.3333 7.00004C12.9797 7.00004 12.6406 6.85956 12.3905 6.60952C12.1405 6.35947 12 6.02033 12 5.66671Z" fill="white"/>
</svg>
