<svg width="27" height="27" viewBox="0 0 27 27" fill="none" xmlns="http://www.w3.org/2000/svg">
<path d="M19.0288 16.2706C16.3248 16.2706 14.1245 18.4578 14.1245 21.1456C14.1245 23.9362 16.991 26.0206 19.5553 26.0206H23.335C24.2255 26.0206 25.0597 25.6013 25.5645 24.9004C26.0412 24.2385 26.1679 23.4184 25.9123 22.6514C24.5375 18.5358 22.0935 16.2695 19.0288 16.2695V16.2706ZM23.8073 23.634C23.7077 23.7716 23.5322 23.8539 23.335 23.8539H19.5553C18.0765 23.8539 16.2912 22.646 16.2912 21.1456C16.2912 19.6451 17.5186 18.4372 19.0288 18.4372C21.6667 18.4372 23.1108 21.1022 23.8572 23.3382C23.8702 23.3761 23.9092 23.4931 23.8073 23.634ZM26.0412 3.94547C26.0412 2.89572 25.6338 1.91097 24.8928 1.16997H24.8918C23.4108 -0.31203 20.8184 -0.31203 19.3429 1.16997L1.68784 18.8229C0.626168 19.8856 0.0411682 21.2972 0.0411682 22.7987V24.9361C0.0411682 25.5341 0.526502 26.0195 1.1245 26.0195H3.263C4.76559 26.0195 6.17717 25.4345 7.23884 24.3728L24.8939 6.71989C25.6349 5.97889 26.0423 4.99414 26.0423 3.94439L26.0412 3.94547ZM5.70809 22.8421C5.05484 23.4953 4.18709 23.8539 3.26409 23.8539H2.20892V22.7998C2.20892 21.8768 2.56859 21.008 3.22075 20.3558L16.5956 6.98097L19.0818 9.46722L5.70809 22.8421ZM23.361 5.18805L20.6126 7.93647L18.1263 5.45022L20.8758 2.70072C21.5367 2.0388 22.698 2.03989 23.3599 2.70072C23.6903 3.0333 23.8745 3.47422 23.8745 3.94547C23.8745 4.41672 23.6925 4.85764 23.361 5.18805ZM1.1895 6.71989C0.449585 5.97889 0.0422515 4.99305 0.0422515 3.94547C0.0422515 2.89789 0.449585 1.90989 1.1895 1.16997C2.67259 -0.314197 5.26175 -0.313114 6.74159 1.16997L10.9005 5.32889C11.3241 5.75247 11.3241 6.43714 10.9005 6.86072C10.4769 7.2843 9.79225 7.2843 9.36867 6.86072L5.20867 2.70072C4.54675 2.03772 3.38542 2.0388 2.7235 2.70072C2.39092 3.0333 2.20892 3.47422 2.20892 3.94547C2.20892 4.41672 2.39092 4.85764 2.72242 5.18914L6.88134 9.34805C7.30492 9.77055 7.30492 10.4563 6.88134 10.8799C6.67009 11.0911 6.39275 11.1973 6.11542 11.1973C5.83809 11.1973 5.56075 11.0911 5.3495 10.8799L1.1895 6.71989Z" fill="white"/>
</svg>
