<svg width="32" height="30" viewBox="0 0 32 30" fill="none" xmlns="http://www.w3.org/2000/svg">
<path d="M25.3333 0H6.66667C4.89921 0.00216526 3.20474 0.721203 1.95496 1.99939C0.705176 3.27758 0.00211714 5.01055 0 6.81818L0 17.7273C0.00211714 19.5349 0.705176 21.2679 1.95496 22.5461C3.20474 23.8243 4.89921 24.5433 6.66667 24.5455H14.6667V27.2727H9.33333C8.97971 27.2727 8.64057 27.4164 8.39052 27.6721C8.14048 27.9279 8 28.2747 8 28.6364C8 28.998 8.14048 29.3449 8.39052 29.6006C8.64057 29.8563 8.97971 30 9.33333 30H22.6667C23.0203 30 23.3594 29.8563 23.6095 29.6006C23.8595 29.3449 24 28.998 24 28.6364C24 28.2747 23.8595 27.9279 23.6095 27.6721C23.3594 27.4164 23.0203 27.2727 22.6667 27.2727H17.3333V24.5455H25.3333C27.1008 24.5433 28.7953 23.8243 30.045 22.5461C31.2948 21.2679 31.9979 19.5349 32 17.7273V6.81818C31.9979 5.01055 31.2948 3.27758 30.045 1.99939C28.7953 0.721203 27.1008 0.00216526 25.3333 0ZM6.66667 2.72727H25.3333C26.3942 2.72727 27.4116 3.15828 28.1618 3.92547C28.9119 4.69267 29.3333 5.73321 29.3333 6.81818V16.3636H2.66667V6.81818C2.66667 5.73321 3.08809 4.69267 3.83824 3.92547C4.58839 3.15828 5.6058 2.72727 6.66667 2.72727ZM25.3333 21.8182H6.66667C5.84232 21.8147 5.03916 21.5508 4.36707 21.0626C3.69498 20.5744 3.18678 19.8858 2.912 19.0909H29.088C28.8132 19.8858 28.305 20.5744 27.6329 21.0626C26.9608 21.5508 26.1577 21.8147 25.3333 21.8182Z" fill="white"/>
</svg>
