<svg width="31" height="30" viewBox="0 0 31 30" fill="none" xmlns="http://www.w3.org/2000/svg">
<path d="M28.1416 13.4514L15.0187 21.3264L1.89576 13.4514C1.61112 13.2807 1.27029 13.2299 0.94826 13.3104C0.626226 13.391 0.349363 13.5961 0.178579 13.8807C0.00779498 14.1654 -0.0429214 14.5062 0.037587 14.8282C0.118095 15.1503 0.323234 15.4271 0.607874 15.5979L14.3754 23.8584C14.57 23.9754 14.7928 24.0371 15.0199 24.0371C15.247 24.0371 15.4698 23.9754 15.6645 23.8584L29.432 15.5979C29.7166 15.4271 29.9218 15.1503 30.0023 14.8282C30.0828 14.5062 30.0321 14.1654 29.8613 13.8807C29.6905 13.5961 29.4136 13.391 29.0916 13.3104C28.7696 13.2299 28.4287 13.2807 28.1441 13.4514H28.1416Z" fill="white"/>
<path d="M28.1416 19.1687L15.0187 27.0425L1.89576 19.1687C1.75482 19.0842 1.5986 19.0282 1.43603 19.004C1.27346 18.9798 1.10771 18.9879 0.948256 19.0277C0.788801 19.0676 0.638759 19.1385 0.506697 19.2363C0.374635 19.3342 0.263139 19.4571 0.178576 19.598C0.0940117 19.739 0.0380361 19.8952 0.0138446 20.0577C-0.0103469 20.2203 -0.00228045 20.3861 0.0375833 20.5455C0.118092 20.8676 0.32323 21.1444 0.607871 21.3152L14.3754 29.5757C14.57 29.6926 14.7928 29.7544 15.0199 29.7544C15.247 29.7544 15.4698 29.6926 15.6645 29.5757L29.432 21.3152C29.7166 21.1444 29.9218 20.8676 30.0023 20.5455C30.0828 20.2235 30.0321 19.8827 29.8613 19.598C29.6905 19.3134 29.4136 19.1082 29.0916 19.0277C28.7696 18.9472 28.4287 18.9979 28.1441 19.1687H28.1416Z" fill="white"/>
<path d="M15.0187 18.205C14.3435 18.2046 13.6812 18.0208 13.1025 17.6731L0.606625 10.1748C0.421574 10.0635 0.268459 9.90629 0.162161 9.71834C0.0558638 9.53039 0 9.31813 0 9.10221C0 8.88628 0.0558638 8.67402 0.162161 8.48607C0.268459 8.29812 0.421574 8.14087 0.606625 8.02959L13.1025 0.531321C13.6812 0.183665 14.3436 0 15.0187 0C15.6938 0 16.3562 0.183665 16.9349 0.531321L29.4307 8.02959C29.6158 8.14087 29.7689 8.29812 29.8752 8.48607C29.9815 8.67402 30.0373 8.88628 30.0373 9.10221C30.0373 9.31813 29.9815 9.53039 29.8752 9.71834C29.7689 9.90629 29.6158 10.0635 29.4307 10.1748L16.9349 17.6731C16.3561 18.0208 15.6938 18.2046 15.0187 18.205ZM3.68428 9.10221L14.3929 15.5266C14.582 15.6398 14.7983 15.6995 15.0187 15.6995C15.2391 15.6995 15.4553 15.6398 15.6445 15.5266L26.3531 9.10221L15.6445 2.6778C15.4553 2.56466 15.2391 2.50491 15.0187 2.50491C14.7983 2.50491 14.582 2.56466 14.3929 2.6778L3.68428 9.10221Z" fill="white"/>
</svg>
