<svg width="30" height="30" viewBox="0 0 30 30" fill="none" xmlns="http://www.w3.org/2000/svg">
<path d="M26.25 19.9997V14.9997C26.2496 13.3203 25.8725 11.6625 25.1465 10.1481C24.4205 8.63383 23.3641 7.30164 22.055 6.24968H25.3463C25.6233 6.7217 26.0482 7.08924 26.5551 7.29541C27.0621 7.50158 27.6229 7.53489 28.1507 7.39017C28.6786 7.24545 29.144 6.93077 29.4749 6.49486C29.8058 6.05894 29.9838 5.5261 29.9814 4.9788C29.9789 4.43151 29.7961 3.90028 29.4613 3.46736C29.1264 3.03445 28.6582 2.72397 28.1291 2.58401C27.6 2.44405 27.0395 2.48239 26.5344 2.69312C26.0293 2.90384 25.6078 3.27519 25.335 3.74969H19.8225C19.5497 2.67771 18.9274 1.72719 18.0541 1.0483C17.1808 0.369412 16.1062 0.000854492 15 0.000854492C13.8938 0.000854492 12.8192 0.369412 11.9459 1.0483C11.0726 1.72719 10.4503 2.67771 10.1775 3.74969H4.65375C4.37673 3.27767 3.95185 2.91013 3.44486 2.70396C2.93788 2.49779 2.37707 2.46448 1.84925 2.6092C1.32143 2.75392 0.856033 3.0686 0.5251 3.50451C0.194166 3.94043 0.0161532 4.47327 0.018616 5.02057C0.0210788 5.56786 0.20388 6.09909 0.538724 6.53201C0.873567 6.96492 1.34178 7.2754 1.87088 7.41536C2.39998 7.55532 2.96047 7.51698 3.46557 7.30625C3.97068 7.09553 4.39224 6.72418 4.665 6.24968H7.945C6.63595 7.30164 5.57952 8.63383 4.85352 10.1481C4.12751 11.6625 3.75042 13.3203 3.75 14.9997V19.9997C2.75544 19.9997 1.80161 20.3948 1.09835 21.098C0.395088 21.8013 0 22.7551 0 23.7497L0 26.2497C0 27.2442 0.395088 28.1981 1.09835 28.9013C1.80161 29.6046 2.75544 29.9997 3.75 29.9997H6.25C7.24456 29.9997 8.19839 29.6046 8.90165 28.9013C9.60491 28.1981 10 27.2442 10 26.2497V23.7497C10 22.7551 9.60491 21.8013 8.90165 21.098C8.19839 20.3948 7.24456 19.9997 6.25 19.9997V14.9997C6.25204 13.4606 6.66001 11.9492 7.43276 10.6181C8.2055 9.28707 9.31568 8.18338 10.6512 7.41843C11.0774 8.19965 11.7062 8.85164 12.4714 9.30588C13.2366 9.76012 14.1101 9.99984 15 9.99984C15.8899 9.99984 16.7634 9.76012 17.5286 9.30588C18.2938 8.85164 18.9226 8.19965 19.3488 7.41843C20.6843 8.18338 21.7945 9.28707 22.5672 10.6181C23.34 11.9492 23.748 13.4606 23.75 14.9997V19.9997C22.7554 19.9997 21.8016 20.3948 21.0983 21.098C20.3951 21.8013 20 22.7551 20 23.7497V26.2497C20 27.2442 20.3951 28.1981 21.0983 28.9013C21.8016 29.6046 22.7554 29.9997 23.75 29.9997H26.25C27.2446 29.9997 28.1984 29.6046 28.9017 28.9013C29.6049 28.1981 30 27.2442 30 26.2497V23.7497C30 22.7551 29.6049 21.8013 28.9017 21.098C28.1984 20.3948 27.2446 19.9997 26.25 19.9997ZM7.5 23.7497V26.2497C7.5 26.5812 7.3683 26.8991 7.13388 27.1336C6.89946 27.368 6.58152 27.4997 6.25 27.4997H3.75C3.41848 27.4997 3.10054 27.368 2.86612 27.1336C2.6317 26.8991 2.5 26.5812 2.5 26.2497V23.7497C2.5 23.4182 2.6317 23.1002 2.86612 22.8658C3.10054 22.6314 3.41848 22.4997 3.75 22.4997H6.25C6.58152 22.4997 6.89946 22.6314 7.13388 22.8658C7.3683 23.1002 7.5 23.4182 7.5 23.7497ZM15 7.49968C14.5055 7.49968 14.0222 7.35306 13.6111 7.07836C13.2 6.80365 12.8795 6.41321 12.6903 5.95639C12.5011 5.49958 12.4516 4.99691 12.548 4.51196C12.6445 4.02701 12.8826 3.58155 13.2322 3.23192C13.5819 2.88229 14.0273 2.64419 14.5123 2.54772C14.9972 2.45126 15.4999 2.50077 15.9567 2.68999C16.4135 2.87921 16.804 3.19964 17.0787 3.61076C17.3534 4.02188 17.5 4.50523 17.5 4.99968C17.5 5.66273 17.2366 6.29861 16.7678 6.76745C16.2989 7.23629 15.663 7.49968 15 7.49968ZM27.5 26.2497C27.5 26.5812 27.3683 26.8991 27.1339 27.1336C26.8995 27.368 26.5815 27.4997 26.25 27.4997H23.75C23.4185 27.4997 23.1005 27.368 22.8661 27.1336C22.6317 26.8991 22.5 26.5812 22.5 26.2497V23.7497C22.5 23.4182 22.6317 23.1002 22.8661 22.8658C23.1005 22.6314 23.4185 22.4997 23.75 22.4997H26.25C26.5815 22.4997 26.8995 22.6314 27.1339 22.8658C27.3683 23.1002 27.5 23.4182 27.5 23.7497V26.2497Z" fill="white"/>
</svg>
