<svg width="141" height="41" viewBox="0 0 141 41" fill="none" xmlns="http://www.w3.org/2000/svg">
<path d="M6.64563 6.97879C11.5971 0.347338 21.3855 -1.31253 29.6644 0.963287C12.1978 1.25926 3.22345 21.2256 12.9526 27.5131C12.9526 27.5131 3.91895 26.6012 3.01401 19.2658C2.11302 11.9264 6.64563 6.97879 6.64563 6.97879Z" fill="url(#paint0_linear_795_485)"/>
<path opacity="0.3" d="M6.64563 6.97879C6.64563 6.97879 2.11302 11.9264 3.01401 19.2618C3.91895 26.5972 12.9526 27.5091 12.9526 27.5091C10.1152 25.6733 8.87045 22.6775 8.96134 19.3418C6.04497 17.2459 4.24299 10.3465 6.64563 6.97879Z" fill="url(#paint1_linear_795_485)"/>
<path d="M37.5279 7.70674C30.2449 1.18727 17.3148 12.1304 14.7344 17.7699C21.1283 7.69474 36.2752 12.6423 36.777 19.2618C40.2743 14.5982 37.5279 7.70674 37.5279 7.70674Z" fill="url(#paint2_linear_795_485)"/>
<path opacity="0.3" d="M37.5277 7.70672C34.6904 5.16693 30.9995 5.28292 27.3955 6.6948C33.5997 5.05094 36.2513 11.1064 34.1134 14.8941C35.6506 16.118 36.6544 17.6379 36.7808 19.2618C40.2742 14.5982 37.5277 7.70672 37.5277 7.70672Z" fill="url(#paint3_linear_795_485)"/>
<path d="M7.14355 34.8045C10.8661 38.6282 16.0349 41 21.757 41C33.0866 41 42.2704 31.7048 42.2704 20.2377C42.2704 19.3298 42.2071 18.4379 42.0965 17.5579C27.0958 31.2808 11.688 34.2166 7.14355 34.8045Z" fill="url(#paint4_linear_795_485)"/>
<path opacity="0.5" d="M42.2664 20.2337C42.2664 19.3258 42.2032 18.4339 42.0925 17.5539C27.0958 31.2808 11.688 34.2166 7.14355 34.8045C8.10777 35.7964 9.17079 36.6884 10.3128 37.4683C16.762 37.0283 32.7981 30.2569 42.1439 22.4975C42.2229 21.7536 42.2664 20.9976 42.2664 20.2337Z" fill="url(#paint5_linear_795_485)"/>
<path d="M52.2482 12.8263L42.693 13.1263L43.7244 15.6861L43.8824 16.062C39.1325 19.5417 33.6198 23.1214 29.1544 25.4133C15.7699 32.2767 3.17185 35.1605 1.02607 31.8447C0.29105 30.7088 0.915421 29.029 2.65418 27.0371C0.00257493 29.5049 -0.56252 31.6967 0.516298 33.4326C3.84759 38.7962 16.6156 36.6963 29.5733 30.0489C34.7461 27.3931 40.7843 23.7614 45.4434 19.7497L46.7079 22.7415L52.2482 12.8263Z" fill="url(#paint6_linear_795_485)"/>
<path d="M34.0861 5.91086C35.5522 6.20283 37.4135 7.35474 37.1448 9.14659C37.0855 9.54656 37.0657 9.95053 36.9195 10.3305C32.8176 20.9336 17.2123 29.3569 8.83467 24.1894C4.51544 21.5296 2.05352 12.8263 6.64542 6.97877C-0.0922574 14.7181 0.540017 24.9573 4.1914 29.2769C8.70821 34.6165 25.7441 28.333 41.7999 17.3859C41.7999 14.2222 39.4091 6.96277 34.0861 5.91086Z" fill="url(#paint7_linear_795_485)"/>
<path d="M67.0696 12.4545V27H64.4347V12.4545H67.0696ZM72.3803 20.608V27H69.8093V16.0909H72.2667V17.9446H72.3945C72.6455 17.3338 73.0456 16.8485 73.5948 16.4886C74.1488 16.1288 74.833 15.9489 75.6474 15.9489C76.4002 15.9489 77.056 16.1098 77.6147 16.4318C78.1781 16.7538 78.6138 17.2202 78.9215 17.831C79.234 18.4418 79.3879 19.1828 79.3832 20.054V27H76.8121V20.4517C76.8121 19.7225 76.6228 19.152 76.244 18.7401C75.8699 18.3281 75.3514 18.1222 74.6886 18.1222C74.2388 18.1222 73.8387 18.2216 73.4883 18.4205C73.1426 18.6146 72.8704 18.8963 72.6715 19.2656C72.4774 19.6349 72.3803 20.0824 72.3803 20.608ZM90.619 18.9744L88.2752 19.2301C88.2089 18.9934 88.0929 18.7708 87.9272 18.5625C87.7662 18.3542 87.5484 18.1861 87.2738 18.0582C86.9992 17.9304 86.663 17.8665 86.2653 17.8665C85.7302 17.8665 85.2804 17.9825 84.9158 18.2145C84.556 18.4465 84.3784 18.7472 84.3832 19.1165C84.3784 19.4337 84.4944 19.6918 84.7312 19.8906C84.9727 20.0895 85.3704 20.2528 85.9244 20.3807L87.7852 20.7784C88.8174 21.0009 89.5844 21.3537 90.0863 21.8366C90.5929 22.3196 90.8486 22.9517 90.8533 23.733C90.8486 24.4195 90.6474 25.0256 90.2496 25.5511C89.8567 26.072 89.3098 26.4792 88.609 26.7727C87.9083 27.0663 87.1033 27.2131 86.1942 27.2131C84.859 27.2131 83.7842 26.9337 82.9698 26.375C82.1554 25.8116 81.6701 25.0279 81.5138 24.0241L84.021 23.7827C84.1346 24.2751 84.3761 24.6468 84.7454 24.8977C85.1147 25.1487 85.5953 25.2741 86.1871 25.2741C86.7979 25.2741 87.288 25.1487 87.6573 24.8977C88.0314 24.6468 88.2184 24.3366 88.2184 23.9673C88.2184 23.6548 88.0977 23.3968 87.8562 23.1932C87.6194 22.9896 87.2501 22.8333 86.7482 22.7244L84.8874 22.3338C83.841 22.116 83.0669 21.7491 82.565 21.233C82.0631 20.7121 81.8145 20.054 81.8192 19.2585C81.8145 18.5862 81.9968 18.0038 82.3661 17.5114C82.7402 17.0142 83.2586 16.6307 83.9215 16.3608C84.5891 16.0862 85.3585 15.9489 86.2298 15.9489C87.5082 15.9489 88.5143 16.2211 89.2482 16.7656C89.9869 17.3101 90.4438 18.0464 90.619 18.9744ZM97.7319 27.2131C96.6665 27.2131 95.7433 26.9787 94.962 26.5099C94.1808 26.0412 93.5747 25.3854 93.1438 24.5426C92.7177 23.6998 92.5046 22.715 92.5046 21.5881C92.5046 20.4612 92.7177 19.474 93.1438 18.6264C93.5747 17.7789 94.1808 17.1207 94.962 16.652C95.7433 16.1832 96.6665 15.9489 97.7319 15.9489C98.7972 15.9489 99.7205 16.1832 100.502 16.652C101.283 17.1207 101.887 17.7789 102.313 18.6264C102.744 19.474 102.959 20.4612 102.959 21.5881C102.959 22.715 102.744 23.6998 102.313 24.5426C101.887 25.3854 101.283 26.0412 100.502 26.5099C99.7205 26.9787 98.7972 27.2131 97.7319 27.2131ZM97.7461 25.1534C98.3237 25.1534 98.8067 24.9948 99.195 24.6776C99.5832 24.3556 99.872 23.9247 100.061 23.3849C100.256 22.8452 100.353 22.2438 100.353 21.581C100.353 20.9134 100.256 20.3097 100.061 19.7699C99.872 19.2254 99.5832 18.7921 99.195 18.4702C98.8067 18.1482 98.3237 17.9872 97.7461 17.9872C97.1542 17.9872 96.6618 18.1482 96.2688 18.4702C95.8806 18.7921 95.5894 19.2254 95.3952 19.7699C95.2058 20.3097 95.1112 20.9134 95.1112 21.581C95.1112 22.2438 95.2058 22.8452 95.3952 23.3849C95.5894 23.9247 95.8806 24.3556 96.2688 24.6776C96.6618 24.9948 97.1542 25.1534 97.7461 25.1534ZM108.281 27.2202C107.589 27.2202 106.967 27.0971 106.413 26.8509C105.863 26.5999 105.428 26.2306 105.106 25.7429C104.789 25.2552 104.63 24.6539 104.63 23.9389C104.63 23.3234 104.744 22.8144 104.971 22.4119C105.198 22.0095 105.508 21.6875 105.901 21.446C106.294 21.2045 106.737 21.0223 107.229 20.8991C107.727 20.7713 108.24 20.679 108.771 20.6222C109.41 20.5559 109.928 20.4967 110.326 20.4446C110.724 20.3878 111.013 20.3026 111.192 20.1889C111.377 20.0705 111.469 19.8883 111.469 19.642V19.5994C111.469 19.0644 111.311 18.6501 110.994 18.3565C110.676 18.063 110.219 17.9162 109.623 17.9162C108.993 17.9162 108.494 18.0535 108.124 18.3281C107.76 18.6027 107.513 18.9271 107.386 19.3011L104.985 18.9602C105.174 18.2973 105.487 17.7434 105.923 17.2983C106.358 16.8485 106.891 16.5123 107.521 16.2898C108.15 16.0625 108.846 15.9489 109.609 15.9489C110.134 15.9489 110.657 16.0104 111.178 16.1335C111.699 16.2566 112.175 16.4602 112.606 16.7443C113.037 17.0237 113.382 17.4048 113.643 17.8878C113.908 18.3707 114.04 18.9744 114.04 19.6989V27H111.569V25.5014H111.484C111.327 25.8045 111.107 26.0885 110.823 26.3537C110.544 26.6141 110.191 26.8248 109.765 26.9858C109.344 27.142 108.849 27.2202 108.281 27.2202ZM108.948 25.331C109.464 25.331 109.912 25.2292 110.29 25.0256C110.669 24.8172 110.96 24.5426 111.164 24.2017C111.372 23.8608 111.477 23.4891 111.477 23.0866V21.8011C111.396 21.8674 111.259 21.929 111.065 21.9858C110.875 22.0426 110.662 22.0923 110.425 22.1349C110.189 22.1776 109.954 22.2154 109.722 22.2486C109.49 22.2817 109.289 22.3101 109.119 22.3338C108.735 22.3859 108.392 22.4711 108.089 22.5895C107.786 22.7079 107.547 22.8736 107.371 23.0866C107.196 23.295 107.109 23.5649 107.109 23.8963C107.109 24.3698 107.281 24.7273 107.627 24.9688C107.973 25.2102 108.413 25.331 108.948 25.331ZM119.197 20.608V27H116.626V16.0909H119.083V17.9446H119.211C119.462 17.3338 119.862 16.8485 120.411 16.4886C120.965 16.1288 121.649 15.9489 122.464 15.9489C123.217 15.9489 123.872 16.1098 124.431 16.4318C124.995 16.7538 125.43 17.2202 125.738 17.831C126.05 18.4418 126.204 19.1828 126.2 20.054V27H123.629V20.4517C123.629 19.7225 123.439 19.152 123.06 18.7401C122.686 18.3281 122.168 18.1222 121.505 18.1222C121.055 18.1222 120.655 18.2216 120.305 18.4205C119.959 18.6146 119.687 18.8963 119.488 19.2656C119.294 19.6349 119.197 20.0824 119.197 20.608ZM132.862 27.1918C132.004 27.1918 131.237 26.9716 130.56 26.5312C129.883 26.0909 129.348 25.4517 128.955 24.6136C128.562 23.7756 128.366 22.7576 128.366 21.5597C128.366 20.3475 128.565 19.3248 128.962 18.4915C129.365 17.6534 129.907 17.0213 130.589 16.5952C131.271 16.1643 132.031 15.9489 132.869 15.9489C133.508 15.9489 134.033 16.0578 134.445 16.2756C134.857 16.4886 135.184 16.7467 135.425 17.0497C135.667 17.348 135.854 17.6297 135.987 17.8949H136.093V12.4545H138.671V27H136.143V25.2812H135.987C135.854 25.5464 135.662 25.8281 135.411 26.1264C135.16 26.42 134.829 26.6709 134.417 26.8793C134.005 27.0876 133.487 27.1918 132.862 27.1918ZM133.579 25.0824C134.123 25.0824 134.587 24.9356 134.971 24.642C135.354 24.3437 135.646 23.9295 135.844 23.3991C136.043 22.8688 136.143 22.2509 136.143 21.5455C136.143 20.84 136.043 20.2268 135.844 19.706C135.65 19.1851 135.362 18.7803 134.978 18.4915C134.599 18.2027 134.133 18.0582 133.579 18.0582C133.006 18.0582 132.528 18.2074 132.144 18.5057C131.761 18.804 131.472 19.2159 131.278 19.7415C131.084 20.267 130.987 20.8684 130.987 21.5455C130.987 22.2273 131.084 22.8357 131.278 23.3707C131.477 23.901 131.768 24.3201 132.151 24.6278C132.54 24.9309 133.015 25.0824 133.579 25.0824Z" fill="white"/>
<defs>
<linearGradient id="paint0_linear_795_485" x1="29.6644" y1="13.7565" x2="2.89551" y2="13.7565" gradientUnits="userSpaceOnUse">
<stop stop-color="#E24B3E"/>
<stop offset="0.994792" stop-color="#F1A252"/>
</linearGradient>
<linearGradient id="paint1_linear_795_485" x1="12.9526" y1="17.2439" x2="2.89551" y2="17.2439" gradientUnits="userSpaceOnUse">
<stop stop-color="#E24B3E"/>
<stop offset="0.994792" stop-color="#F1A252"/>
</linearGradient>
<linearGradient id="paint2_linear_795_485" x1="38.5531" y1="12.4793" x2="14.7344" y2="12.4793" gradientUnits="userSpaceOnUse">
<stop stop-color="#E24B3E"/>
<stop offset="0.994792" stop-color="#F1A252"/>
</linearGradient>
<linearGradient id="paint3_linear_795_485" x1="38.5539" y1="12.4807" x2="27.3955" y2="12.4807" gradientUnits="userSpaceOnUse">
<stop stop-color="#E24B3E"/>
<stop offset="0.994792" stop-color="#F1A252"/>
</linearGradient>
<linearGradient id="paint4_linear_795_485" x1="42.2704" y1="29.279" x2="7.14355" y2="29.279" gradientUnits="userSpaceOnUse">
<stop stop-color="#E24B3E"/>
<stop offset="0.994792" stop-color="#F1A252"/>
</linearGradient>
<linearGradient id="paint5_linear_795_485" x1="42.2664" y1="27.5111" x2="7.14355" y2="27.5111" gradientUnits="userSpaceOnUse">
<stop stop-color="#E24B3E"/>
<stop offset="0.994792" stop-color="#F1A252"/>
</linearGradient>
<linearGradient id="paint6_linear_795_485" x1="52.2482" y1="24.6508" x2="-2.56748e-07" y2="24.6508" gradientUnits="userSpaceOnUse">
<stop stop-color="#E24B3E"/>
<stop offset="0.994792" stop-color="#F1A252"/>
</linearGradient>
<linearGradient id="paint7_linear_795_485" x1="41.7999" y1="18.561" x2="1.49219" y2="18.561" gradientUnits="userSpaceOnUse">
<stop stop-color="#E24B3E"/>
<stop offset="0.994792" stop-color="#F1A252"/>
</linearGradient>
</defs>
</svg>
